# xmcd
#
# Track frame offsets: 
#        150
#        18650
#        43624
#        60979
#        80436
#        101973
#        120952
#        141524
#        161814
#        181753
#
# Disc length: 2713 seconds
#
# Revision: 1
# Processed by: cddbd v1.5.1PL0 Copyright (c) Steve Scherf et al.
# Submitted via: ExactAudioCopy v0.95a5
#
DISCID=810a970a
DTITLE=Emberek - Száz út...
DYEAR=1995
DGENRE=
TTITLE0=Száz út
TTITLE1=Mama
TTITLE2=Fekete angyal
TTITLE3=A Hold titka
TTITLE4=Nem szólnak a húrok
TTITLE5=Kaviár
TTITLE6=Gyertyafény
TTITLE7=Könnyek
TTITLE8=Lángoló éj
TTITLE9=Elszöknek a színek
EXTD=
EXTT0=
EXTT1=
EXTT2=
EXTT3=
EXTT4=
EXTT5=
EXTT6=
EXTT7=
EXTT8=
EXTT9=
PLAYORDER=
